# xmcd
#
# Track frame offsets: 
#        150
#        21312
#        41370
#        69697
#
# Disc length: 1176 seconds
#
# Revision: 0
# Processed by: cddbd v1.5.2PL0 Copyright (c) Steve Scherf et al.
# Submitted via: ExactAudioCopy v1.0b3
#
DISCID=2f049604
DTITLE=Gitana - Talkin' Bout A Revolution
DYEAR=1900
DGENRE=
TTITLE0=Talkin' Bout A Revolution (Mr. Polon Mix)
TTITLE1=Talkin' Bout A Revolution (Argentino Mix)
TTITLE2=Talkin' Bout A Revolution (S.O.B. Mix)
TTITLE3=Talkin' Bout A Revolution (Original Mix)
EXTD=
EXTT0=
EXTT1=
EXTT2=
EXTT3=
PLAYORDER=
